<mxfile host="app.diagrams.net" agent="Mozilla/5.0 (Windows NT 10.0; Win64; x64) AppleWebKit/537.36 (KHTML, like Gecko) Chrome/129.0.0.0 Safari/537.36" version="24.7.17">
  <diagram name="Page-1" id="6133507b-19e7-1e82-6fc7-422aa6c4b21f">
    <mxGraphModel dx="3703" dy="1413" grid="1" gridSize="10" guides="1" tooltips="1" connect="1" arrows="1" fold="1" page="1" pageScale="1" pageWidth="1100" pageHeight="850" background="none" math="0" shadow="0">
      <root>
        <mxCell id="0" />
        <mxCell id="1" parent="0" />
        <object label="&lt;div&gt;AssignmentsWindow&lt;/div&gt;&lt;div&gt;&lt;br&gt;&lt;/div&gt;" AssignmentsWindow="" id="78961159f06e98e8-17">
          <mxCell style="swimlane;html=1;fontStyle=1;align=center;verticalAlign=top;childLayout=stackLayout;horizontal=1;startSize=26;horizontalStack=0;resizeParent=1;resizeLast=0;collapsible=1;marginBottom=0;swimlaneFillColor=#ffffff;rounded=0;shadow=0;comic=0;labelBackgroundColor=none;strokeWidth=1;fillColor=none;fontFamily=Verdana;fontSize=12;movable=1;resizable=1;rotatable=1;deletable=1;editable=1;locked=0;connectable=1;" parent="1" vertex="1">
            <mxGeometry x="20" y="100" width="320" height="180" as="geometry" />
          </mxCell>
        </object>
        <mxCell id="w_FCNFXschIVTDnrTgpB-2" value="&amp;nbsp;" style="text;strokeColor=none;fillColor=none;align=left;verticalAlign=top;spacingLeft=4;spacingRight=4;overflow=hidden;rotatable=0;points=[[0,0.5],[1,0.5]];portConstraint=eastwest;whiteSpace=wrap;html=1;" parent="78961159f06e98e8-17" vertex="1">
          <mxGeometry y="26" width="320" height="26" as="geometry" />
        </mxCell>
        <mxCell id="w_FCNFXschIVTDnrTgpB-6" value="&amp;lt;&amp;lt;constructor&amp;gt;&amp;gt; AssignmentsWindow() " style="text;strokeColor=none;fillColor=none;align=left;verticalAlign=top;spacingLeft=4;spacingRight=4;overflow=hidden;rotatable=0;points=[[0,0.5],[1,0.5]];portConstraint=eastwest;whiteSpace=wrap;html=1;" parent="78961159f06e98e8-17" vertex="1">
          <mxGeometry y="52" width="320" height="26" as="geometry" />
        </mxCell>
        <mxCell id="78961159f06e98e8-43" value="MainWindow" style="swimlane;html=1;fontStyle=1;align=center;verticalAlign=top;childLayout=stackLayout;horizontal=1;startSize=26;horizontalStack=0;resizeParent=1;resizeLast=0;collapsible=1;marginBottom=0;swimlaneFillColor=#ffffff;rounded=0;shadow=0;comic=0;labelBackgroundColor=none;strokeWidth=1;fillColor=none;fontFamily=Verdana;fontSize=12" parent="1" vertex="1">
          <mxGeometry x="440" y="122" width="350" height="108" as="geometry" />
        </mxCell>
        <mxCell id="w_FCNFXschIVTDnrTgpB-13" value="" style="line;strokeWidth=1;fillColor=none;align=left;verticalAlign=middle;spacingTop=-1;spacingLeft=3;spacingRight=3;rotatable=0;labelPosition=right;points=[];portConstraint=eastwest;strokeColor=inherit;" parent="78961159f06e98e8-43" vertex="1">
          <mxGeometry y="26" width="350" height="44" as="geometry" />
        </mxCell>
        <mxCell id="w_FCNFXschIVTDnrTgpB-14" value="&amp;lt;&amp;lt;constructor&amp;gt;&amp;gt; MainWindow() " style="text;strokeColor=none;fillColor=none;align=left;verticalAlign=top;spacingLeft=4;spacingRight=4;overflow=hidden;rotatable=0;points=[[0,0.5],[1,0.5]];portConstraint=eastwest;whiteSpace=wrap;html=1;" parent="78961159f06e98e8-43" vertex="1">
          <mxGeometry y="70" width="350" height="20" as="geometry" />
        </mxCell>
        <mxCell id="78961159f06e98e8-108" value="Assignment" style="swimlane;html=1;fontStyle=1;align=center;verticalAlign=top;childLayout=stackLayout;horizontal=1;startSize=26;horizontalStack=0;resizeParent=1;resizeLast=0;collapsible=1;marginBottom=0;swimlaneFillColor=#ffffff;rounded=0;shadow=0;comic=0;labelBackgroundColor=none;strokeWidth=1;fillColor=none;fontFamily=Verdana;fontSize=12" parent="1" vertex="1">
          <mxGeometry x="220" y="900" width="420" height="550" as="geometry" />
        </mxCell>
        <mxCell id="78961159f06e98e8-109" value="+ RegionAssignmentId: String" style="text;html=1;strokeColor=none;fillColor=none;align=left;verticalAlign=top;spacingLeft=4;spacingRight=4;whiteSpace=wrap;overflow=hidden;rotatable=0;points=[[0,0.5],[1,0.5]];portConstraint=eastwest;" parent="78961159f06e98e8-108" vertex="1">
          <mxGeometry y="26" width="420" height="26" as="geometry" />
        </mxCell>
        <mxCell id="78961159f06e98e8-110" value="+ StartAddress: String" style="text;html=1;strokeColor=none;fillColor=none;align=left;verticalAlign=top;spacingLeft=4;spacingRight=4;whiteSpace=wrap;overflow=hidden;rotatable=0;points=[[0,0.5],[1,0.5]];portConstraint=eastwest;" parent="78961159f06e98e8-108" vertex="1">
          <mxGeometry y="52" width="420" height="26" as="geometry" />
        </mxCell>
        <mxCell id="wk8aedMz6wveuseHpSyb-9" value="+ EndAddress: String" style="text;html=1;strokeColor=none;fillColor=none;align=left;verticalAlign=top;spacingLeft=4;spacingRight=4;whiteSpace=wrap;overflow=hidden;rotatable=0;points=[[0,0.5],[1,0.5]];portConstraint=eastwest;" parent="78961159f06e98e8-108" vertex="1">
          <mxGeometry y="78" width="420" height="26" as="geometry" />
        </mxCell>
        <mxCell id="wk8aedMz6wveuseHpSyb-10" value="+ Start: DateTime" style="text;html=1;strokeColor=none;fillColor=none;align=left;verticalAlign=top;spacingLeft=4;spacingRight=4;whiteSpace=wrap;overflow=hidden;rotatable=0;points=[[0,0.5],[1,0.5]];portConstraint=eastwest;" parent="78961159f06e98e8-108" vertex="1">
          <mxGeometry y="104" width="420" height="26" as="geometry" />
        </mxCell>
        <mxCell id="wk8aedMz6wveuseHpSyb-11" value="+ Finish: DateTime" style="text;html=1;strokeColor=none;fillColor=none;align=left;verticalAlign=top;spacingLeft=4;spacingRight=4;whiteSpace=wrap;overflow=hidden;rotatable=0;points=[[0,0.5],[1,0.5]];portConstraint=eastwest;" parent="78961159f06e98e8-108" vertex="1">
          <mxGeometry y="130" width="420" height="26" as="geometry" />
        </mxCell>
        <mxCell id="wk8aedMz6wveuseHpSyb-12" value="+ Description: String" style="text;html=1;strokeColor=none;fillColor=none;align=left;verticalAlign=top;spacingLeft=4;spacingRight=4;whiteSpace=wrap;overflow=hidden;rotatable=0;points=[[0,0.5],[1,0.5]];portConstraint=eastwest;" parent="78961159f06e98e8-108" vertex="1">
          <mxGeometry y="156" width="420" height="26" as="geometry" />
        </mxCell>
        <mxCell id="wk8aedMz6wveuseHpSyb-13" value="+ AssignmentType: AssignmentTypeEnum" style="text;html=1;strokeColor=none;fillColor=none;align=left;verticalAlign=top;spacingLeft=4;spacingRight=4;whiteSpace=wrap;overflow=hidden;rotatable=0;points=[[0,0.5],[1,0.5]];portConstraint=eastwest;" parent="78961159f06e98e8-108" vertex="1">
          <mxGeometry y="182" width="420" height="26" as="geometry" />
        </mxCell>
        <mxCell id="wk8aedMz6wveuseHpSyb-14" value="&lt;div&gt;+ StartRegion: Region&lt;/div&gt;" style="text;html=1;strokeColor=none;fillColor=none;align=left;verticalAlign=top;spacingLeft=4;spacingRight=4;whiteSpace=wrap;overflow=hidden;rotatable=0;points=[[0,0.5],[1,0.5]];portConstraint=eastwest;" parent="78961159f06e98e8-108" vertex="1">
          <mxGeometry y="208" width="420" height="26" as="geometry" />
        </mxCell>
        <mxCell id="wk8aedMz6wveuseHpSyb-15" value="+ EndRegion: Region" style="text;html=1;strokeColor=none;fillColor=none;align=left;verticalAlign=top;spacingLeft=4;spacingRight=4;whiteSpace=wrap;overflow=hidden;rotatable=0;points=[[0,0.5],[1,0.5]];portConstraint=eastwest;" parent="78961159f06e98e8-108" vertex="1">
          <mxGeometry y="234" width="420" height="26" as="geometry" />
        </mxCell>
        <mxCell id="6VsDzhBcmwsWC21iRai3-2" value="+ IsMatched: Bool" style="text;html=1;strokeColor=none;fillColor=none;align=left;verticalAlign=top;spacingLeft=4;spacingRight=4;whiteSpace=wrap;overflow=hidden;rotatable=0;points=[[0,0.5],[1,0.5]];portConstraint=eastwest;" vertex="1" parent="78961159f06e98e8-108">
          <mxGeometry y="260" width="420" height="30" as="geometry" />
        </mxCell>
        <mxCell id="wk8aedMz6wveuseHpSyb-40" value="+ RegionsPassed: Bool[]" style="text;html=1;strokeColor=none;fillColor=none;align=left;verticalAlign=top;spacingLeft=4;spacingRight=4;whiteSpace=wrap;overflow=hidden;rotatable=0;points=[[0,0.5],[1,0.5]];portConstraint=eastwest;" parent="78961159f06e98e8-108" vertex="1">
          <mxGeometry y="290" width="420" height="26" as="geometry" />
        </mxCell>
        <mxCell id="78961159f06e98e8-116" value="" style="line;html=1;strokeWidth=1;fillColor=none;align=left;verticalAlign=middle;spacingTop=-1;spacingLeft=3;spacingRight=3;rotatable=0;labelPosition=right;points=[];portConstraint=eastwest;" parent="78961159f06e98e8-108" vertex="1">
          <mxGeometry y="316" width="420" height="8" as="geometry" />
        </mxCell>
        <mxCell id="6VsDzhBcmwsWC21iRai3-3" value="+ FindRegionsPassed(endRegion: Region, startRegion: Region) : List&amp;lt;Int&amp;gt;" style="text;html=1;strokeColor=none;fillColor=none;align=left;verticalAlign=top;spacingLeft=4;spacingRight=4;whiteSpace=wrap;overflow=hidden;rotatable=0;points=[[0,0.5],[1,0.5]];portConstraint=eastwest;" vertex="1" parent="78961159f06e98e8-108">
          <mxGeometry y="324" width="420" height="40" as="geometry" />
        </mxCell>
        <mxCell id="6VsDzhBcmwsWC21iRai3-4" value="- SetIndexToTrue(index: Int)&amp;nbsp;" style="text;html=1;strokeColor=none;fillColor=none;align=left;verticalAlign=top;spacingLeft=4;spacingRight=4;whiteSpace=wrap;overflow=hidden;rotatable=0;points=[[0,0.5],[1,0.5]];portConstraint=eastwest;" vertex="1" parent="78961159f06e98e8-108">
          <mxGeometry y="364" width="420" height="40" as="geometry" />
        </mxCell>
        <mxCell id="6VsDzhBcmwsWC21iRai3-1" value="- SetIndexToFalse(index2: Int)&amp;nbsp;" style="text;html=1;strokeColor=none;fillColor=none;align=left;verticalAlign=top;spacingLeft=4;spacingRight=4;whiteSpace=wrap;overflow=hidden;rotatable=0;points=[[0,0.5],[1,0.5]];portConstraint=eastwest;" vertex="1" parent="78961159f06e98e8-108">
          <mxGeometry y="404" width="420" height="40" as="geometry" />
        </mxCell>
        <mxCell id="pi39ZVfkWH-q8esaPO29-7" value="&lt;div&gt;&amp;lt;&amp;lt;constructor&amp;gt;&amp;gt; Assignment(&lt;/div&gt;&lt;div&gt;id: String, startAddress: String, endAddress: String,&lt;/div&gt;&lt;div&gt;start: DateTime, finish: DateTime, description: String,&lt;/div&gt;&lt;div&gt;type: AssignmentTypeEnum, startRegion: Region,&lt;/div&gt;&lt;div&gt;endRegion: Region, isMatched: Bool, ambulanceId: String)&lt;/div&gt;&lt;div&gt;&lt;br&gt;&lt;/div&gt;" style="text;strokeColor=none;fillColor=none;align=left;verticalAlign=top;spacingLeft=4;spacingRight=4;overflow=hidden;rotatable=0;points=[[0,0.5],[1,0.5]];portConstraint=eastwest;whiteSpace=wrap;html=1;" parent="78961159f06e98e8-108" vertex="1">
          <mxGeometry y="444" width="420" height="106" as="geometry" />
        </mxCell>
        <mxCell id="LiIIhhn5Ps5Z9-WXhKOp-2" value="View" style="shape=umlFrame;whiteSpace=wrap;html=1;pointerEvents=0;" parent="1" vertex="1">
          <mxGeometry x="-770" y="10" width="1820" height="380" as="geometry" />
        </mxCell>
        <mxCell id="LiIIhhn5Ps5Z9-WXhKOp-3" value="ViewModel" style="shape=umlFrame;whiteSpace=wrap;html=1;pointerEvents=0;" parent="1" vertex="1">
          <mxGeometry x="-770" y="390" width="1820" height="470" as="geometry" />
        </mxCell>
        <mxCell id="LiIIhhn5Ps5Z9-WXhKOp-4" value="Model" style="shape=umlFrame;whiteSpace=wrap;html=1;pointerEvents=0;" parent="1" vertex="1">
          <mxGeometry x="-770" y="860" width="1820" height="760" as="geometry" />
        </mxCell>
        <mxCell id="wk8aedMz6wveuseHpSyb-1" value="AssignmentRepo" style="swimlane;fontStyle=1;align=center;verticalAlign=top;childLayout=stackLayout;horizontal=1;startSize=26;horizontalStack=0;resizeParent=1;resizeParentMax=0;resizeLast=0;collapsible=1;marginBottom=0;whiteSpace=wrap;html=1;" parent="1" vertex="1">
          <mxGeometry x="-230" y="900" width="400" height="268" as="geometry" />
        </mxCell>
        <mxCell id="wk8aedMz6wveuseHpSyb-2" value="- _regions: List&amp;lt;Region&amp;gt;" style="text;strokeColor=none;fillColor=none;align=left;verticalAlign=top;spacingLeft=4;spacingRight=4;overflow=hidden;rotatable=0;points=[[0,0.5],[1,0.5]];portConstraint=eastwest;whiteSpace=wrap;html=1;" parent="wk8aedMz6wveuseHpSyb-1" vertex="1">
          <mxGeometry y="26" width="400" height="26" as="geometry" />
        </mxCell>
        <mxCell id="wk8aedMz6wveuseHpSyb-3" value="" style="line;strokeWidth=1;fillColor=none;align=left;verticalAlign=middle;spacingTop=-1;spacingLeft=3;spacingRight=3;rotatable=0;labelPosition=right;points=[];portConstraint=eastwest;strokeColor=inherit;" parent="wk8aedMz6wveuseHpSyb-1" vertex="1">
          <mxGeometry y="52" width="400" height="8" as="geometry" />
        </mxCell>
        <mxCell id="6VsDzhBcmwsWC21iRai3-6" value="+ GetAll(): IEnumerable&amp;lt;Assignment&amp;gt;" style="text;html=1;strokeColor=none;fillColor=none;align=left;verticalAlign=top;spacingLeft=4;spacingRight=4;whiteSpace=wrap;overflow=hidden;rotatable=0;points=[[0,0.5],[1,0.5]];portConstraint=eastwest;" vertex="1" parent="wk8aedMz6wveuseHpSyb-1">
          <mxGeometry y="60" width="400" height="26" as="geometry" />
        </mxCell>
        <mxCell id="pi39ZVfkWH-q8esaPO29-2" value="+ ReassignAmbulance(a1: Assignment, a2: Assignment)&amp;nbsp; " style="text;strokeColor=none;fillColor=none;align=left;verticalAlign=top;spacingLeft=4;spacingRight=4;overflow=hidden;rotatable=0;points=[[0,0.5],[1,0.5]];portConstraint=eastwest;whiteSpace=wrap;html=1;" parent="wk8aedMz6wveuseHpSyb-1" vertex="1">
          <mxGeometry y="86" width="400" height="26" as="geometry" />
        </mxCell>
        <mxCell id="pi39ZVfkWH-q8esaPO29-3" value="+ SetIsMatchedTrue(a1: Assignment, a2: Assignment)" style="text;strokeColor=none;fillColor=none;align=left;verticalAlign=top;spacingLeft=4;spacingRight=4;overflow=hidden;rotatable=0;points=[[0,0.5],[1,0.5]];portConstraint=eastwest;whiteSpace=wrap;html=1;" parent="wk8aedMz6wveuseHpSyb-1" vertex="1">
          <mxGeometry y="112" width="400" height="26" as="geometry" />
        </mxCell>
        <mxCell id="ruRPyzoUIk_TEETxhgX9-29" value="- ReadAssignment(reader : SqlDataReader) : Assignment" style="text;strokeColor=none;fillColor=none;align=left;verticalAlign=top;spacingLeft=4;spacingRight=4;overflow=hidden;rotatable=0;points=[[0,0.5],[1,0.5]];portConstraint=eastwest;whiteSpace=wrap;html=1;" parent="wk8aedMz6wveuseHpSyb-1" vertex="1">
          <mxGeometry y="138" width="400" height="26" as="geometry" />
        </mxCell>
        <mxCell id="6VsDzhBcmwsWC21iRai3-5" value="+ AssignmentSavings(assignment: Assignment)" style="text;strokeColor=none;fillColor=none;align=left;verticalAlign=top;spacingLeft=4;spacingRight=4;overflow=hidden;rotatable=0;points=[[0,0.5],[1,0.5]];portConstraint=eastwest;whiteSpace=wrap;html=1;" vertex="1" parent="wk8aedMz6wveuseHpSyb-1">
          <mxGeometry y="164" width="400" height="26" as="geometry" />
        </mxCell>
        <mxCell id="6VsDzhBcmwsWC21iRai3-8" value="+ GetById(regionalAssignmentId: String) : Assignment" style="text;strokeColor=none;fillColor=none;align=left;verticalAlign=top;spacingLeft=4;spacingRight=4;overflow=hidden;rotatable=0;points=[[0,0.5],[1,0.5]];portConstraint=eastwest;whiteSpace=wrap;html=1;" vertex="1" parent="wk8aedMz6wveuseHpSyb-1">
          <mxGeometry y="190" width="400" height="26" as="geometry" />
        </mxCell>
        <mxCell id="6VsDzhBcmwsWC21iRai3-9" value="+ Update(entity: Assignment)" style="text;strokeColor=none;fillColor=none;align=left;verticalAlign=top;spacingLeft=4;spacingRight=4;overflow=hidden;rotatable=0;points=[[0,0.5],[1,0.5]];portConstraint=eastwest;whiteSpace=wrap;html=1;" vertex="1" parent="wk8aedMz6wveuseHpSyb-1">
          <mxGeometry y="216" width="400" height="26" as="geometry" />
        </mxCell>
        <mxCell id="w_FCNFXschIVTDnrTgpB-24" value="&amp;lt;&amp;lt;constructor&amp;gt;&amp;gt; AssignmentRepo()" style="text;strokeColor=none;fillColor=none;align=left;verticalAlign=top;spacingLeft=4;spacingRight=4;overflow=hidden;rotatable=0;points=[[0,0.5],[1,0.5]];portConstraint=eastwest;whiteSpace=wrap;html=1;" parent="wk8aedMz6wveuseHpSyb-1" vertex="1">
          <mxGeometry y="242" width="400" height="26" as="geometry" />
        </mxCell>
        <mxCell id="wk8aedMz6wveuseHpSyb-50" value="" style="endArrow=none;html=1;rounded=0;exitX=1;exitY=0.5;exitDx=0;exitDy=0;entryX=0;entryY=0.897;entryDx=0;entryDy=0;entryPerimeter=0;" parent="1" target="78961159f06e98e8-110" edge="1">
          <mxGeometry width="50" height="50" relative="1" as="geometry">
            <mxPoint x="170.00000000000023" y="975" as="sourcePoint" />
            <mxPoint x="580" y="1100" as="targetPoint" />
          </mxGeometry>
        </mxCell>
        <mxCell id="wk8aedMz6wveuseHpSyb-53" value="0...*" style="edgeLabel;html=1;align=center;verticalAlign=middle;resizable=0;points=[];" parent="wk8aedMz6wveuseHpSyb-50" vertex="1" connectable="0">
          <mxGeometry x="0.6923" relative="1" as="geometry">
            <mxPoint y="-15" as="offset" />
          </mxGeometry>
        </mxCell>
        <mxCell id="wk8aedMz6wveuseHpSyb-54" value="1" style="edgeLabel;html=1;align=center;verticalAlign=middle;resizable=0;points=[];" parent="wk8aedMz6wveuseHpSyb-50" vertex="1" connectable="0">
          <mxGeometry x="-0.7564" y="1" relative="1" as="geometry">
            <mxPoint y="-14" as="offset" />
          </mxGeometry>
        </mxCell>
        <mxCell id="wk8aedMz6wveuseHpSyb-57" value="MainViewModel" style="swimlane;fontStyle=1;align=center;verticalAlign=top;childLayout=stackLayout;horizontal=1;startSize=26;horizontalStack=0;resizeParent=1;resizeParentMax=0;resizeLast=0;collapsible=1;marginBottom=0;whiteSpace=wrap;html=1;" parent="1" vertex="1">
          <mxGeometry x="550" y="473" width="460" height="162" as="geometry" />
        </mxCell>
        <mxCell id="ruRPyzoUIk_TEETxhgX9-1" value="- usernames: List&amp;lt;String&amp;gt;" style="text;strokeColor=none;fillColor=none;align=left;verticalAlign=top;spacingLeft=4;spacingRight=4;overflow=hidden;rotatable=0;points=[[0,0.5],[1,0.5]];portConstraint=eastwest;whiteSpace=wrap;html=1;" parent="wk8aedMz6wveuseHpSyb-57" vertex="1">
          <mxGeometry y="26" width="460" height="26" as="geometry" />
        </mxCell>
        <mxCell id="6VsDzhBcmwsWC21iRai3-46" value="- _loginCount: Int" style="text;strokeColor=none;fillColor=none;align=left;verticalAlign=top;spacingLeft=4;spacingRight=4;overflow=hidden;rotatable=0;points=[[0,0.5],[1,0.5]];portConstraint=eastwest;whiteSpace=wrap;html=1;" vertex="1" parent="wk8aedMz6wveuseHpSyb-57">
          <mxGeometry y="52" width="460" height="26" as="geometry" />
        </mxCell>
        <mxCell id="ruRPyzoUIk_TEETxhgX9-3" value="" style="line;strokeWidth=1;fillColor=none;align=left;verticalAlign=middle;spacingTop=-1;spacingLeft=3;spacingRight=3;rotatable=0;labelPosition=right;points=[];portConstraint=eastwest;strokeColor=inherit;" parent="wk8aedMz6wveuseHpSyb-57" vertex="1">
          <mxGeometry y="78" width="460" height="8" as="geometry" />
        </mxCell>
        <mxCell id="ruRPyzoUIk_TEETxhgX9-6" value="+ Login(): Bool" style="text;strokeColor=none;fillColor=none;align=left;verticalAlign=top;spacingLeft=4;spacingRight=4;overflow=hidden;rotatable=0;points=[[0,0.5],[1,0.5]];portConstraint=eastwest;whiteSpace=wrap;html=1;" parent="wk8aedMz6wveuseHpSyb-57" vertex="1">
          <mxGeometry y="86" width="460" height="24" as="geometry" />
        </mxCell>
        <mxCell id="ruRPyzoUIk_TEETxhgX9-7" value="+ CanLogin(): Bool" style="text;strokeColor=none;fillColor=none;align=left;verticalAlign=top;spacingLeft=4;spacingRight=4;overflow=hidden;rotatable=0;points=[[0,0.5],[1,0.5]];portConstraint=eastwest;whiteSpace=wrap;html=1;" parent="wk8aedMz6wveuseHpSyb-57" vertex="1">
          <mxGeometry y="110" width="460" height="26" as="geometry" />
        </mxCell>
        <mxCell id="ruRPyzoUIk_TEETxhgX9-5" value="&amp;lt;&amp;lt;constructor&amp;gt;&amp;gt; MainViewModel()" style="text;strokeColor=none;fillColor=none;align=left;verticalAlign=top;spacingLeft=4;spacingRight=4;overflow=hidden;rotatable=0;points=[[0,0.5],[1,0.5]];portConstraint=eastwest;whiteSpace=wrap;html=1;" parent="wk8aedMz6wveuseHpSyb-57" vertex="1">
          <mxGeometry y="136" width="460" height="26" as="geometry" />
        </mxCell>
        <mxCell id="wk8aedMz6wveuseHpSyb-61" value="AssignmentsViewModel" style="swimlane;fontStyle=1;align=center;verticalAlign=top;childLayout=stackLayout;horizontal=1;startSize=26;horizontalStack=0;resizeParent=1;resizeParentMax=0;resizeLast=0;collapsible=1;marginBottom=0;whiteSpace=wrap;html=1;" parent="1" vertex="1">
          <mxGeometry x="80" y="400" width="380" height="386" as="geometry" />
        </mxCell>
        <mxCell id="w_FCNFXschIVTDnrTgpB-15" value="+ AllAssignments : ObservableCollection&amp;lt;Assignment&amp;gt;" style="text;strokeColor=none;fillColor=none;align=left;verticalAlign=top;spacingLeft=4;spacingRight=4;overflow=hidden;rotatable=0;points=[[0,0.5],[1,0.5]];portConstraint=eastwest;whiteSpace=wrap;html=1;" parent="wk8aedMz6wveuseHpSyb-61" vertex="1">
          <mxGeometry y="26" width="380" height="26" as="geometry" />
        </mxCell>
        <mxCell id="6VsDzhBcmwsWC21iRai3-39" value="+ PotentialAssignments : ObservableCollection &amp;lt;Assignment&amp;gt;" style="text;strokeColor=none;fillColor=none;align=left;verticalAlign=top;spacingLeft=4;spacingRight=4;overflow=hidden;rotatable=0;points=[[0,0.5],[1,0.5]];portConstraint=eastwest;whiteSpace=wrap;html=1;" vertex="1" parent="wk8aedMz6wveuseHpSyb-61">
          <mxGeometry y="52" width="380" height="26" as="geometry" />
        </mxCell>
        <mxCell id="6VsDzhBcmwsWC21iRai3-40" value="+ CurrentAssignments : ObservableCollection &amp;lt;Assignment&amp;gt;" style="text;strokeColor=none;fillColor=none;align=left;verticalAlign=top;spacingLeft=4;spacingRight=4;overflow=hidden;rotatable=0;points=[[0,0.5],[1,0.5]];portConstraint=eastwest;whiteSpace=wrap;html=1;" vertex="1" parent="wk8aedMz6wveuseHpSyb-61">
          <mxGeometry y="78" width="380" height="26" as="geometry" />
        </mxCell>
        <mxCell id="wk8aedMz6wveuseHpSyb-63" value="" style="line;strokeWidth=1;fillColor=none;align=left;verticalAlign=middle;spacingTop=-1;spacingLeft=3;spacingRight=3;rotatable=0;labelPosition=right;points=[];portConstraint=eastwest;strokeColor=inherit;" parent="wk8aedMz6wveuseHpSyb-61" vertex="1">
          <mxGeometry y="104" width="380" height="8" as="geometry" />
        </mxCell>
        <mxCell id="wk8aedMz6wveuseHpSyb-71" value="&lt;div&gt;+ SortAssignmentsByStart():&lt;/div&gt;&lt;div&gt;&lt;br&gt;&lt;/div&gt;" style="text;strokeColor=none;fillColor=none;align=left;verticalAlign=top;spacingLeft=4;spacingRight=4;overflow=hidden;rotatable=0;points=[[0,0.5],[1,0.5]];portConstraint=eastwest;whiteSpace=wrap;html=1;" parent="wk8aedMz6wveuseHpSyb-61" vertex="1">
          <mxGeometry y="112" width="380" height="26" as="geometry" />
        </mxCell>
        <mxCell id="pi39ZVfkWH-q8esaPO29-1" value="+ CombineAssignments():" style="text;strokeColor=none;fillColor=none;align=left;verticalAlign=top;spacingLeft=4;spacingRight=4;overflow=hidden;rotatable=0;points=[[0,0.5],[1,0.5]];portConstraint=eastwest;whiteSpace=wrap;html=1;" parent="wk8aedMz6wveuseHpSyb-61" vertex="1">
          <mxGeometry y="138" width="380" height="26" as="geometry" />
        </mxCell>
        <mxCell id="FW3K1UX7M-Oo-U68jjP3-2" value="+ CheckIfAssigned(assignment: Assignment, newAssignment: Assignment?)" style="text;strokeColor=none;fillColor=none;align=left;verticalAlign=top;spacingLeft=4;spacingRight=4;overflow=hidden;rotatable=0;points=[[0,0.5],[1,0.5]];portConstraint=eastwest;whiteSpace=wrap;html=1;" parent="wk8aedMz6wveuseHpSyb-61" vertex="1">
          <mxGeometry y="164" width="380" height="40" as="geometry" />
        </mxCell>
        <mxCell id="6VsDzhBcmwsWC21iRai3-41" value="+&amp;nbsp;CanAddAssignment(a: Assignment)" style="text;strokeColor=none;fillColor=none;align=left;verticalAlign=top;spacingLeft=4;spacingRight=4;overflow=hidden;rotatable=0;points=[[0,0.5],[1,0.5]];portConstraint=eastwest;whiteSpace=wrap;html=1;" vertex="1" parent="wk8aedMz6wveuseHpSyb-61">
          <mxGeometry y="204" width="380" height="26" as="geometry" />
        </mxCell>
        <mxCell id="FW3K1UX7M-Oo-U68jjP3-3" value="+ SetAllAssignments()" style="text;strokeColor=none;fillColor=none;align=left;verticalAlign=top;spacingLeft=4;spacingRight=4;overflow=hidden;rotatable=0;points=[[0,0.5],[1,0.5]];portConstraint=eastwest;whiteSpace=wrap;html=1;" parent="wk8aedMz6wveuseHpSyb-61" vertex="1">
          <mxGeometry y="230" width="380" height="26" as="geometry" />
        </mxCell>
        <mxCell id="6VsDzhBcmwsWC21iRai3-44" value="- DoAssignmentsOverlap(): Bool" style="text;strokeColor=none;fillColor=none;align=left;verticalAlign=top;spacingLeft=4;spacingRight=4;overflow=hidden;rotatable=0;points=[[0,0.5],[1,0.5]];portConstraint=eastwest;whiteSpace=wrap;html=1;" vertex="1" parent="wk8aedMz6wveuseHpSyb-61">
          <mxGeometry y="256" width="380" height="26" as="geometry" />
        </mxCell>
        <mxCell id="6VsDzhBcmwsWC21iRai3-42" value="- AddAssignment1()" style="text;strokeColor=none;fillColor=none;align=left;verticalAlign=top;spacingLeft=4;spacingRight=4;overflow=hidden;rotatable=0;points=[[0,0.5],[1,0.5]];portConstraint=eastwest;whiteSpace=wrap;html=1;" vertex="1" parent="wk8aedMz6wveuseHpSyb-61">
          <mxGeometry y="282" width="380" height="26" as="geometry" />
        </mxCell>
        <mxCell id="6VsDzhBcmwsWC21iRai3-43" value="- RemoveAssignment1()" style="text;strokeColor=none;fillColor=none;align=left;verticalAlign=top;spacingLeft=4;spacingRight=4;overflow=hidden;rotatable=0;points=[[0,0.5],[1,0.5]];portConstraint=eastwest;whiteSpace=wrap;html=1;" vertex="1" parent="wk8aedMz6wveuseHpSyb-61">
          <mxGeometry y="308" width="380" height="26" as="geometry" />
        </mxCell>
        <mxCell id="6VsDzhBcmwsWC21iRai3-45" value="- RemoveAssignment2()" style="text;strokeColor=none;fillColor=none;align=left;verticalAlign=top;spacingLeft=4;spacingRight=4;overflow=hidden;rotatable=0;points=[[0,0.5],[1,0.5]];portConstraint=eastwest;whiteSpace=wrap;html=1;" vertex="1" parent="wk8aedMz6wveuseHpSyb-61">
          <mxGeometry y="334" width="380" height="26" as="geometry" />
        </mxCell>
        <mxCell id="w_FCNFXschIVTDnrTgpB-21" value="&amp;lt;&amp;lt;constructor&amp;gt;&amp;gt; AssignmentsViewModel()" style="text;strokeColor=none;fillColor=none;align=left;verticalAlign=top;spacingLeft=4;spacingRight=4;overflow=hidden;rotatable=0;points=[[0,0.5],[1,0.5]];portConstraint=eastwest;whiteSpace=wrap;html=1;" parent="wk8aedMz6wveuseHpSyb-61" vertex="1">
          <mxGeometry y="360" width="380" height="26" as="geometry" />
        </mxCell>
        <mxCell id="wk8aedMz6wveuseHpSyb-65" value="" style="endArrow=none;html=1;rounded=0;startArrow=classic;startFill=1;exitX=0.5;exitY=0;exitDx=0;exitDy=0;" parent="1" source="wk8aedMz6wveuseHpSyb-1" target="w_FCNFXschIVTDnrTgpB-21" edge="1">
          <mxGeometry width="50" height="50" relative="1" as="geometry">
            <mxPoint x="-30" y="920" as="sourcePoint" />
            <mxPoint x="260" y="824" as="targetPoint" />
            <Array as="points">
              <mxPoint x="-30" y="820" />
              <mxPoint x="270" y="820" />
            </Array>
          </mxGeometry>
        </mxCell>
        <mxCell id="w_FCNFXschIVTDnrTgpB-5" value="" style="line;strokeWidth=1;fillColor=none;align=left;verticalAlign=middle;spacingTop=-1;spacingLeft=3;spacingRight=3;rotatable=0;labelPosition=right;points=[];portConstraint=eastwest;strokeColor=inherit;" parent="1" vertex="1">
          <mxGeometry x="20" y="150" width="320" height="8" as="geometry" />
        </mxCell>
        <mxCell id="w_FCNFXschIVTDnrTgpB-17" value="" style="endArrow=classic;html=1;rounded=0;entryX=0.5;entryY=0;entryDx=0;entryDy=0;exitX=0.5;exitY=1;exitDx=0;exitDy=0;" parent="1" source="78961159f06e98e8-43" target="wk8aedMz6wveuseHpSyb-57" edge="1">
          <mxGeometry width="50" height="50" relative="1" as="geometry">
            <mxPoint x="620" y="280" as="sourcePoint" />
            <mxPoint x="670" y="280" as="targetPoint" />
          </mxGeometry>
        </mxCell>
        <mxCell id="w_FCNFXschIVTDnrTgpB-20" value="" style="endArrow=classic;html=1;rounded=0;" parent="1" target="wk8aedMz6wveuseHpSyb-61" edge="1">
          <mxGeometry width="50" height="50" relative="1" as="geometry">
            <mxPoint x="190" y="280" as="sourcePoint" />
            <mxPoint x="220" y="190" as="targetPoint" />
          </mxGeometry>
        </mxCell>
        <mxCell id="w_FCNFXschIVTDnrTgpB-25" value="&lt;div&gt;&amp;lt;&amp;lt;enum&amp;gt;&amp;gt;&lt;/div&gt;AssignmentTypeEnum" style="swimlane;fontStyle=1;align=center;verticalAlign=top;childLayout=stackLayout;horizontal=1;startSize=40;horizontalStack=0;resizeParent=1;resizeParentMax=0;resizeLast=0;collapsible=1;marginBottom=0;whiteSpace=wrap;html=1;background=red;fillColor=#a20025;strokeColor=#6F0000;fontColor=#ffffff;" parent="1" vertex="1">
          <mxGeometry x="760" y="1410" width="170" height="144" as="geometry" />
        </mxCell>
        <mxCell id="w_FCNFXschIVTDnrTgpB-26" value="A" style="text;strokeColor=#6F0000;fillColor=#a20025;align=left;verticalAlign=top;spacingLeft=4;spacingRight=4;overflow=hidden;rotatable=0;points=[[0,0.5],[1,0.5]];portConstraint=eastwest;whiteSpace=wrap;html=1;fontColor=#ffffff;" parent="w_FCNFXschIVTDnrTgpB-25" vertex="1">
          <mxGeometry y="40" width="170" height="26" as="geometry" />
        </mxCell>
        <mxCell id="w_FCNFXschIVTDnrTgpB-27" value="B" style="text;strokeColor=#6F0000;fillColor=#a20025;align=left;verticalAlign=top;spacingLeft=4;spacingRight=4;overflow=hidden;rotatable=0;points=[[0,0.5],[1,0.5]];portConstraint=eastwest;whiteSpace=wrap;html=1;fontColor=#ffffff;" parent="w_FCNFXschIVTDnrTgpB-25" vertex="1">
          <mxGeometry y="66" width="170" height="26" as="geometry" />
        </mxCell>
        <mxCell id="w_FCNFXschIVTDnrTgpB-28" value="C" style="text;strokeColor=#6F0000;fillColor=#a20025;align=left;verticalAlign=top;spacingLeft=4;spacingRight=4;overflow=hidden;rotatable=0;points=[[0,0.5],[1,0.5]];portConstraint=eastwest;whiteSpace=wrap;html=1;fontColor=#ffffff;" parent="w_FCNFXschIVTDnrTgpB-25" vertex="1">
          <mxGeometry y="92" width="170" height="26" as="geometry" />
        </mxCell>
        <mxCell id="w_FCNFXschIVTDnrTgpB-29" value="D" style="text;strokeColor=#6F0000;fillColor=#a20025;align=left;verticalAlign=top;spacingLeft=4;spacingRight=4;overflow=hidden;rotatable=0;points=[[0,0.5],[1,0.5]];portConstraint=eastwest;whiteSpace=wrap;html=1;fontColor=#ffffff;" parent="w_FCNFXschIVTDnrTgpB-25" vertex="1">
          <mxGeometry y="118" width="170" height="26" as="geometry" />
        </mxCell>
        <mxCell id="pi39ZVfkWH-q8esaPO29-10" value="" style="endArrow=classic;html=1;rounded=0;" parent="1" source="78961159f06e98e8-108" target="w_FCNFXschIVTDnrTgpB-25" edge="1">
          <mxGeometry width="50" height="50" relative="1" as="geometry">
            <mxPoint x="410" y="1390" as="sourcePoint" />
            <mxPoint x="460" y="1340" as="targetPoint" />
          </mxGeometry>
        </mxCell>
        <mxCell id="ruRPyzoUIk_TEETxhgX9-8" value="IRepository" style="swimlane;fontStyle=1;align=center;verticalAlign=top;childLayout=stackLayout;horizontal=1;startSize=30;horizontalStack=0;resizeParent=1;resizeParentMax=0;resizeLast=0;collapsible=1;marginBottom=0;whiteSpace=wrap;html=1;" parent="1" vertex="1">
          <mxGeometry x="-360" y="1200" width="340" height="190" as="geometry" />
        </mxCell>
        <mxCell id="ruRPyzoUIk_TEETxhgX9-20" value="" style="line;html=1;strokeWidth=1;fillColor=none;align=left;verticalAlign=middle;spacingTop=-1;spacingLeft=3;spacingRight=3;rotatable=0;labelPosition=right;points=[];portConstraint=eastwest;" parent="ruRPyzoUIk_TEETxhgX9-8" vertex="1">
          <mxGeometry y="30" width="340" height="10" as="geometry" />
        </mxCell>
        <mxCell id="ruRPyzoUIk_TEETxhgX9-22" value="+ GetAll() :&amp;nbsp;IEnumerable&amp;lt;T&amp;gt;" style="text;html=1;strokeColor=none;fillColor=none;align=left;verticalAlign=top;spacingLeft=4;spacingRight=4;whiteSpace=wrap;overflow=hidden;rotatable=0;points=[[0,0.5],[1,0.5]];portConstraint=eastwest;" parent="ruRPyzoUIk_TEETxhgX9-8" vertex="1">
          <mxGeometry y="40" width="340" height="30" as="geometry" />
        </mxCell>
        <mxCell id="ruRPyzoUIk_TEETxhgX9-23" value="+ GetById(Id : String) : T" style="text;html=1;strokeColor=none;fillColor=none;align=left;verticalAlign=top;spacingLeft=4;spacingRight=4;whiteSpace=wrap;overflow=hidden;rotatable=0;points=[[0,0.5],[1,0.5]];portConstraint=eastwest;" parent="ruRPyzoUIk_TEETxhgX9-8" vertex="1">
          <mxGeometry y="70" width="340" height="30" as="geometry" />
        </mxCell>
        <mxCell id="ruRPyzoUIk_TEETxhgX9-25" value="+ Add(entity: T)&amp;nbsp;" style="text;html=1;strokeColor=none;fillColor=none;align=left;verticalAlign=top;spacingLeft=4;spacingRight=4;whiteSpace=wrap;overflow=hidden;rotatable=0;points=[[0,0.5],[1,0.5]];portConstraint=eastwest;" parent="ruRPyzoUIk_TEETxhgX9-8" vertex="1">
          <mxGeometry y="100" width="340" height="30" as="geometry" />
        </mxCell>
        <mxCell id="ruRPyzoUIk_TEETxhgX9-26" value="+ Update(entity: T)&amp;nbsp;" style="text;html=1;strokeColor=none;fillColor=none;align=left;verticalAlign=top;spacingLeft=4;spacingRight=4;whiteSpace=wrap;overflow=hidden;rotatable=0;points=[[0,0.5],[1,0.5]];portConstraint=eastwest;" parent="ruRPyzoUIk_TEETxhgX9-8" vertex="1">
          <mxGeometry y="130" width="340" height="30" as="geometry" />
        </mxCell>
        <mxCell id="ruRPyzoUIk_TEETxhgX9-27" value="+ Delete(id : Int)&amp;nbsp;" style="text;html=1;strokeColor=none;fillColor=none;align=left;verticalAlign=top;spacingLeft=4;spacingRight=4;whiteSpace=wrap;overflow=hidden;rotatable=0;points=[[0,0.5],[1,0.5]];portConstraint=eastwest;" parent="ruRPyzoUIk_TEETxhgX9-8" vertex="1">
          <mxGeometry y="160" width="340" height="30" as="geometry" />
        </mxCell>
        <mxCell id="ruRPyzoUIk_TEETxhgX9-28" value="" style="endArrow=classic;html=1;rounded=0;entryX=0.5;entryY=0;entryDx=0;entryDy=0;exitX=0.45;exitY=1.04;exitDx=0;exitDy=0;exitPerimeter=0;" parent="1" source="w_FCNFXschIVTDnrTgpB-24" target="ruRPyzoUIk_TEETxhgX9-8" edge="1">
          <mxGeometry width="50" height="50" relative="1" as="geometry">
            <mxPoint x="-40" y="1128" as="sourcePoint" />
            <mxPoint x="-40" y="1238" as="targetPoint" />
          </mxGeometry>
        </mxCell>
        <mxCell id="ruRPyzoUIk_TEETxhgX9-32" value="" style="endArrow=classic;html=1;rounded=0;exitX=0.966;exitY=1.008;exitDx=0;exitDy=0;exitPerimeter=0;" parent="1" source="w_FCNFXschIVTDnrTgpB-24" edge="1">
          <mxGeometry width="50" height="50" relative="1" as="geometry">
            <mxPoint x="160" y="1158" as="sourcePoint" />
            <mxPoint x="160" y="1680" as="targetPoint" />
          </mxGeometry>
        </mxCell>
        <mxCell id="nh3aIRSLyLPaPqqnHkec-24" style="edgeStyle=orthogonalEdgeStyle;rounded=0;orthogonalLoop=1;jettySize=auto;html=1;entryX=0.5;entryY=0;entryDx=0;entryDy=0;" parent="1" source="nh3aIRSLyLPaPqqnHkec-1" target="nh3aIRSLyLPaPqqnHkec-4" edge="1">
          <mxGeometry relative="1" as="geometry" />
        </mxCell>
        <mxCell id="nh3aIRSLyLPaPqqnHkec-1" value="SavingsWindow" style="swimlane;html=1;fontStyle=1;align=center;verticalAlign=top;childLayout=stackLayout;horizontal=1;startSize=26;horizontalStack=0;resizeParent=1;resizeLast=0;collapsible=1;marginBottom=0;swimlaneFillColor=#ffffff;rounded=0;shadow=0;comic=0;labelBackgroundColor=none;strokeWidth=1;fillColor=none;fontFamily=Verdana;fontSize=12" parent="1" vertex="1">
          <mxGeometry x="-560" y="136" width="350" height="108" as="geometry" />
        </mxCell>
        <mxCell id="nh3aIRSLyLPaPqqnHkec-2" value="" style="line;strokeWidth=1;fillColor=none;align=left;verticalAlign=middle;spacingTop=-1;spacingLeft=3;spacingRight=3;rotatable=0;labelPosition=right;points=[];portConstraint=eastwest;strokeColor=inherit;" parent="nh3aIRSLyLPaPqqnHkec-1" vertex="1">
          <mxGeometry y="26" width="350" height="44" as="geometry" />
        </mxCell>
        <mxCell id="nh3aIRSLyLPaPqqnHkec-3" value="&amp;lt;&amp;lt;constructor&amp;gt;&amp;gt; SavingsWindow() " style="text;strokeColor=none;fillColor=none;align=left;verticalAlign=top;spacingLeft=4;spacingRight=4;overflow=hidden;rotatable=0;points=[[0,0.5],[1,0.5]];portConstraint=eastwest;whiteSpace=wrap;html=1;" parent="nh3aIRSLyLPaPqqnHkec-1" vertex="1">
          <mxGeometry y="70" width="350" height="20" as="geometry" />
        </mxCell>
        <mxCell id="nh3aIRSLyLPaPqqnHkec-27" style="edgeStyle=orthogonalEdgeStyle;rounded=0;orthogonalLoop=1;jettySize=auto;html=1;entryX=0.5;entryY=0;entryDx=0;entryDy=0;" parent="1" source="nh3aIRSLyLPaPqqnHkec-4" target="nh3aIRSLyLPaPqqnHkec-17" edge="1">
          <mxGeometry relative="1" as="geometry" />
        </mxCell>
        <mxCell id="nh3aIRSLyLPaPqqnHkec-4" value="SavingsViewModel" style="swimlane;fontStyle=1;align=center;verticalAlign=top;childLayout=stackLayout;horizontal=1;startSize=26;horizontalStack=0;resizeParent=1;resizeParentMax=0;resizeLast=0;collapsible=1;marginBottom=0;whiteSpace=wrap;html=1;" parent="1" vertex="1">
          <mxGeometry x="-610" y="439" width="460" height="96" as="geometry" />
        </mxCell>
        <mxCell id="nh3aIRSLyLPaPqqnHkec-5" value="&lt;div&gt;+ Regions : ObservableCollection&amp;lt;Region&amp;gt;&lt;br&gt;&lt;/div&gt;" style="text;strokeColor=none;fillColor=none;align=left;verticalAlign=top;spacingLeft=4;spacingRight=4;overflow=hidden;rotatable=0;points=[[0,0.5],[1,0.5]];portConstraint=eastwest;whiteSpace=wrap;html=1;" parent="nh3aIRSLyLPaPqqnHkec-4" vertex="1">
          <mxGeometry y="26" width="460" height="34" as="geometry" />
        </mxCell>
        <mxCell id="nh3aIRSLyLPaPqqnHkec-9" value="" style="line;strokeWidth=1;fillColor=none;align=left;verticalAlign=middle;spacingTop=-1;spacingLeft=3;spacingRight=3;rotatable=0;labelPosition=right;points=[];portConstraint=eastwest;strokeColor=inherit;" parent="nh3aIRSLyLPaPqqnHkec-4" vertex="1">
          <mxGeometry y="60" width="460" height="10" as="geometry" />
        </mxCell>
        <mxCell id="nh3aIRSLyLPaPqqnHkec-10" value="&amp;lt;&amp;lt;constructor&amp;gt;&amp;gt; SavingsViewModel()" style="text;strokeColor=none;fillColor=none;align=left;verticalAlign=top;spacingLeft=4;spacingRight=4;overflow=hidden;rotatable=0;points=[[0,0.5],[1,0.5]];portConstraint=eastwest;whiteSpace=wrap;html=1;" parent="nh3aIRSLyLPaPqqnHkec-4" vertex="1">
          <mxGeometry y="70" width="460" height="26" as="geometry" />
        </mxCell>
        <mxCell id="nh3aIRSLyLPaPqqnHkec-11" value="Region" style="swimlane;fontStyle=1;align=center;verticalAlign=top;childLayout=stackLayout;horizontal=1;startSize=26;horizontalStack=0;resizeParent=1;resizeParentMax=0;resizeLast=0;collapsible=1;marginBottom=0;whiteSpace=wrap;html=1;" parent="1" vertex="1">
          <mxGeometry x="-670" y="1410" width="350" height="190" as="geometry" />
        </mxCell>
        <mxCell id="6VsDzhBcmwsWC21iRai3-10" value="- _averageSpeed: Int" style="text;strokeColor=none;fillColor=none;align=left;verticalAlign=top;spacingLeft=4;spacingRight=4;overflow=hidden;rotatable=0;points=[[0,0.5],[1,0.5]];portConstraint=eastwest;whiteSpace=wrap;html=1;" vertex="1" parent="nh3aIRSLyLPaPqqnHkec-11">
          <mxGeometry y="26" width="350" height="24" as="geometry" />
        </mxCell>
        <mxCell id="7DAJT9VcFXfZj6H7swPT-1" value="+ RegionId: Int" style="text;strokeColor=none;fillColor=none;align=left;verticalAlign=top;spacingLeft=4;spacingRight=4;overflow=hidden;rotatable=0;points=[[0,0.5],[1,0.5]];portConstraint=eastwest;whiteSpace=wrap;html=1;" parent="nh3aIRSLyLPaPqqnHkec-11" vertex="1">
          <mxGeometry y="50" width="350" height="24" as="geometry" />
        </mxCell>
        <mxCell id="nh3aIRSLyLPaPqqnHkec-12" value="&lt;div&gt;+ Name: String&lt;br&gt;&lt;/div&gt;&lt;div&gt;+ HoursSaved: Double&lt;br&gt;&lt;/div&gt;&lt;div&gt;+ DistanceSaved: Double&lt;br&gt;&lt;/div&gt;" style="text;strokeColor=none;fillColor=none;align=left;verticalAlign=top;spacingLeft=4;spacingRight=4;overflow=hidden;rotatable=0;points=[[0,0.5],[1,0.5]];portConstraint=eastwest;whiteSpace=wrap;html=1;" parent="nh3aIRSLyLPaPqqnHkec-11" vertex="1">
          <mxGeometry y="74" width="350" height="54" as="geometry" />
        </mxCell>
        <mxCell id="nh3aIRSLyLPaPqqnHkec-13" value="" style="line;strokeWidth=1;fillColor=none;align=left;verticalAlign=middle;spacingTop=-1;spacingLeft=3;spacingRight=3;rotatable=0;labelPosition=right;points=[];portConstraint=eastwest;strokeColor=inherit;" parent="nh3aIRSLyLPaPqqnHkec-11" vertex="1">
          <mxGeometry y="128" width="350" height="8" as="geometry" />
        </mxCell>
        <mxCell id="nh3aIRSLyLPaPqqnHkec-16" value="&amp;lt;&amp;lt;constructor&amp;gt;&amp;gt; Region(regionId: Int, name: String, hoursSaved: Double)" style="text;strokeColor=none;fillColor=none;align=left;verticalAlign=top;spacingLeft=4;spacingRight=4;overflow=hidden;rotatable=0;points=[[0,0.5],[1,0.5]];portConstraint=eastwest;whiteSpace=wrap;html=1;" parent="nh3aIRSLyLPaPqqnHkec-11" vertex="1">
          <mxGeometry y="136" width="350" height="54" as="geometry" />
        </mxCell>
        <mxCell id="nh3aIRSLyLPaPqqnHkec-25" style="edgeStyle=orthogonalEdgeStyle;rounded=0;orthogonalLoop=1;jettySize=auto;html=1;entryX=0.25;entryY=0;entryDx=0;entryDy=0;" parent="1" source="nh3aIRSLyLPaPqqnHkec-17" target="ruRPyzoUIk_TEETxhgX9-8" edge="1">
          <mxGeometry relative="1" as="geometry" />
        </mxCell>
        <mxCell id="nh3aIRSLyLPaPqqnHkec-26" style="edgeStyle=orthogonalEdgeStyle;rounded=0;orthogonalLoop=1;jettySize=auto;html=1;entryX=0.5;entryY=0;entryDx=0;entryDy=0;" parent="1" source="nh3aIRSLyLPaPqqnHkec-17" target="nh3aIRSLyLPaPqqnHkec-11" edge="1">
          <mxGeometry relative="1" as="geometry" />
        </mxCell>
        <mxCell id="nh3aIRSLyLPaPqqnHkec-17" value="RegionRepo" style="swimlane;fontStyle=1;align=center;verticalAlign=top;childLayout=stackLayout;horizontal=1;startSize=26;horizontalStack=0;resizeParent=1;resizeParentMax=0;resizeLast=0;collapsible=1;marginBottom=0;whiteSpace=wrap;html=1;" parent="1" vertex="1">
          <mxGeometry x="-600" y="909" width="290" height="136" as="geometry" />
        </mxCell>
        <mxCell id="nh3aIRSLyLPaPqqnHkec-19" value="" style="line;strokeWidth=1;fillColor=none;align=left;verticalAlign=middle;spacingTop=-1;spacingLeft=3;spacingRight=3;rotatable=0;labelPosition=right;points=[];portConstraint=eastwest;strokeColor=inherit;" parent="nh3aIRSLyLPaPqqnHkec-17" vertex="1">
          <mxGeometry y="26" width="290" height="8" as="geometry" />
        </mxCell>
        <mxCell id="nh3aIRSLyLPaPqqnHkec-20" value="+ GetAll(): IEnumerable&amp;lt;Region&amp;gt;" style="text;html=1;strokeColor=none;fillColor=none;align=left;verticalAlign=top;spacingLeft=4;spacingRight=4;whiteSpace=wrap;overflow=hidden;rotatable=0;points=[[0,0.5],[1,0.5]];portConstraint=eastwest;" parent="nh3aIRSLyLPaPqqnHkec-17" vertex="1">
          <mxGeometry y="34" width="290" height="26" as="geometry" />
        </mxCell>
        <mxCell id="nh3aIRSLyLPaPqqnHkec-21" value="+ Update(entity: Region) " style="text;html=1;strokeColor=none;fillColor=none;align=left;verticalAlign=top;spacingLeft=4;spacingRight=4;whiteSpace=wrap;overflow=hidden;rotatable=0;points=[[0,0.5],[1,0.5]];portConstraint=eastwest;" parent="nh3aIRSLyLPaPqqnHkec-17" vertex="1">
          <mxGeometry y="60" width="290" height="26" as="geometry" />
        </mxCell>
        <mxCell id="1gzpY_vyVsxff3mQ7P4o-1" style="edgeStyle=orthogonalEdgeStyle;rounded=0;orthogonalLoop=1;jettySize=auto;html=1;" parent="nh3aIRSLyLPaPqqnHkec-17" source="nh3aIRSLyLPaPqqnHkec-28" edge="1">
          <mxGeometry relative="1" as="geometry">
            <mxPoint x="-90" y="781" as="targetPoint" />
          </mxGeometry>
        </mxCell>
        <mxCell id="nh3aIRSLyLPaPqqnHkec-28" value="+ CalculateTotalSavings: Region" style="text;strokeColor=none;fillColor=none;align=left;verticalAlign=top;spacingLeft=4;spacingRight=4;overflow=hidden;rotatable=0;points=[[0,0.5],[1,0.5]];portConstraint=eastwest;whiteSpace=wrap;html=1;" parent="nh3aIRSLyLPaPqqnHkec-17" vertex="1">
          <mxGeometry y="86" width="290" height="24" as="geometry" />
        </mxCell>
        <mxCell id="nh3aIRSLyLPaPqqnHkec-22" value="&amp;lt;&amp;lt;constructor&amp;gt;&amp;gt; RegionRepo()" style="text;html=1;strokeColor=none;fillColor=none;align=left;verticalAlign=top;spacingLeft=4;spacingRight=4;whiteSpace=wrap;overflow=hidden;rotatable=0;points=[[0,0.5],[1,0.5]];portConstraint=eastwest;" parent="nh3aIRSLyLPaPqqnHkec-17" vertex="1">
          <mxGeometry y="110" width="290" height="26" as="geometry" />
        </mxCell>
        <mxCell id="6VsDzhBcmwsWC21iRai3-12" value="Tour" style="swimlane;fontStyle=1;align=center;verticalAlign=top;childLayout=stackLayout;horizontal=1;startSize=26;horizontalStack=0;resizeParent=1;resizeParentMax=0;resizeLast=0;collapsible=1;marginBottom=0;whiteSpace=wrap;html=1;" vertex="1" parent="1">
          <mxGeometry x="704.96" y="1055" width="330" height="272" as="geometry" />
        </mxCell>
        <mxCell id="6VsDzhBcmwsWC21iRai3-14" value="+ FreeRegionsPassed: Bool[]" style="text;strokeColor=none;fillColor=none;align=left;verticalAlign=top;spacingLeft=4;spacingRight=4;overflow=hidden;rotatable=0;points=[[0,0.5],[1,0.5]];portConstraint=eastwest;whiteSpace=wrap;html=1;" vertex="1" parent="6VsDzhBcmwsWC21iRai3-12">
          <mxGeometry y="26" width="330" height="26" as="geometry" />
        </mxCell>
        <mxCell id="6VsDzhBcmwsWC21iRai3-32" value="+ TourAssignments: List&amp;lt;Assignment&amp;gt;" style="text;strokeColor=none;fillColor=none;align=left;verticalAlign=top;spacingLeft=4;spacingRight=4;overflow=hidden;rotatable=0;points=[[0,0.5],[1,0.5]];portConstraint=eastwest;whiteSpace=wrap;html=1;" vertex="1" parent="6VsDzhBcmwsWC21iRai3-12">
          <mxGeometry y="52" width="330" height="26" as="geometry" />
        </mxCell>
        <mxCell id="6VsDzhBcmwsWC21iRai3-33" value="- PotentialAssignments: List&amp;lt;Assignment&amp;gt;" style="text;strokeColor=none;fillColor=none;align=left;verticalAlign=top;spacingLeft=4;spacingRight=4;overflow=hidden;rotatable=0;points=[[0,0.5],[1,0.5]];portConstraint=eastwest;whiteSpace=wrap;html=1;" vertex="1" parent="6VsDzhBcmwsWC21iRai3-12">
          <mxGeometry y="78" width="330" height="26" as="geometry" />
        </mxCell>
        <mxCell id="6VsDzhBcmwsWC21iRai3-15" value="" style="line;strokeWidth=1;fillColor=none;align=left;verticalAlign=middle;spacingTop=-1;spacingLeft=3;spacingRight=3;rotatable=0;labelPosition=right;points=[];portConstraint=eastwest;strokeColor=inherit;" vertex="1" parent="6VsDzhBcmwsWC21iRai3-12">
          <mxGeometry y="104" width="330" height="8" as="geometry" />
        </mxCell>
        <mxCell id="6VsDzhBcmwsWC21iRai3-35" value="&lt;div&gt;&amp;lt;&amp;lt;constructor&amp;gt;&amp;gt; Tour(&lt;span style=&quot;background-color: initial;&quot;&gt;repo:&amp;nbsp;&lt;/span&gt;&lt;span style=&quot;background-color: initial;&quot;&gt;AssignmentRepo&lt;/span&gt;&lt;span style=&quot;background-color: initial;&quot;&gt;)&lt;/span&gt;&lt;/div&gt;&lt;div&gt;&lt;br&gt;&lt;/div&gt;" style="text;strokeColor=none;fillColor=none;align=left;verticalAlign=top;spacingLeft=4;spacingRight=4;overflow=hidden;rotatable=0;points=[[0,0.5],[1,0.5]];portConstraint=eastwest;whiteSpace=wrap;html=1;" vertex="1" parent="6VsDzhBcmwsWC21iRai3-12">
          <mxGeometry y="112" width="330" height="28" as="geometry" />
        </mxCell>
        <mxCell id="6VsDzhBcmwsWC21iRai3-36" value="&lt;div&gt;+ AddToTourAssignments(assignment: Assignment)&lt;/div&gt;" style="text;strokeColor=none;fillColor=none;align=left;verticalAlign=top;spacingLeft=4;spacingRight=4;overflow=hidden;rotatable=0;points=[[0,0.5],[1,0.5]];portConstraint=eastwest;whiteSpace=wrap;html=1;" vertex="1" parent="6VsDzhBcmwsWC21iRai3-12">
          <mxGeometry y="140" width="330" height="28" as="geometry" />
        </mxCell>
        <mxCell id="6VsDzhBcmwsWC21iRai3-38" value="&lt;div&gt;+ SortAssignmentsByPotential(PA: List&amp;lt;Assignment&amp;gt;) : List&amp;lt;Assignment&amp;gt;&lt;/div&gt;" style="text;strokeColor=none;fillColor=none;align=left;verticalAlign=top;spacingLeft=4;spacingRight=4;overflow=hidden;rotatable=0;points=[[0,0.5],[1,0.5]];portConstraint=eastwest;whiteSpace=wrap;html=1;" vertex="1" parent="6VsDzhBcmwsWC21iRai3-12">
          <mxGeometry y="168" width="330" height="52" as="geometry" />
        </mxCell>
        <mxCell id="6VsDzhBcmwsWC21iRai3-37" value="&lt;div&gt;+ CheckForPotentialMatchesForTour(assignment: Assignment, assignments: List&amp;lt;Assignment&amp;gt;) : List&amp;lt;Assignment&amp;gt;&lt;/div&gt;" style="text;strokeColor=none;fillColor=none;align=left;verticalAlign=top;spacingLeft=4;spacingRight=4;overflow=hidden;rotatable=0;points=[[0,0.5],[1,0.5]];portConstraint=eastwest;whiteSpace=wrap;html=1;" vertex="1" parent="6VsDzhBcmwsWC21iRai3-12">
          <mxGeometry y="220" width="330" height="52" as="geometry" />
        </mxCell>
        <mxCell id="6VsDzhBcmwsWC21iRai3-24" value="" style="endArrow=none;html=1;rounded=0;exitX=0.998;exitY=0.862;exitDx=0;exitDy=0;exitPerimeter=0;entryX=0.001;entryY=0.914;entryDx=0;entryDy=0;entryPerimeter=0;" edge="1" parent="1" source="wk8aedMz6wveuseHpSyb-15" target="6VsDzhBcmwsWC21iRai3-33">
          <mxGeometry width="50" height="50" relative="1" as="geometry">
            <mxPoint x="660.0000000000002" y="1190" as="sourcePoint" />
            <mxPoint x="700" y="1160" as="targetPoint" />
          </mxGeometry>
        </mxCell>
        <mxCell id="6VsDzhBcmwsWC21iRai3-25" value="1" style="edgeLabel;html=1;align=center;verticalAlign=middle;resizable=0;points=[];" vertex="1" connectable="0" parent="6VsDzhBcmwsWC21iRai3-24">
          <mxGeometry x="0.6923" relative="1" as="geometry">
            <mxPoint x="5" y="13" as="offset" />
          </mxGeometry>
        </mxCell>
        <mxCell id="6VsDzhBcmwsWC21iRai3-26" value="1...2" style="edgeLabel;html=1;align=center;verticalAlign=middle;resizable=0;points=[];" vertex="1" connectable="0" parent="6VsDzhBcmwsWC21iRai3-24">
          <mxGeometry x="-0.7564" y="1" relative="1" as="geometry">
            <mxPoint x="9" y="-14" as="offset" />
          </mxGeometry>
        </mxCell>
      </root>
    </mxGraphModel>
  </diagram>
</mxfile>
